REM DIRINDEX 1\6,1\2\7,1\2\8,1\2\9,1\3\10,1\3\11,1\4\12,1\4\13,1\4\14,1\5\15,1\5\16,1\5\17
REM DIRNAME folder01,folder02,folder03,folder04,folder05,folder06,folder07,folder08,folder09,folder10,folder11,folder12,folder13,folder14,folder15,folder16,folder17
TITLE ""
FILE "P2Q_t_0036-0053.mp3" MP3
  TRACK 01 AUDIO
    TITLE "10:cjc040_1720"
    INDEX 01 00:00:00
  TRACK 02 AUDIO
    TITLE "0:"
    INDEX 01 00:01:11
  TRACK 03 AUDIO
    TITLE "11:cjc040_1721"
    INDEX 01 00:01:68
  TRACK 04 AUDIO
    TITLE "0:"
    INDEX 01 00:05:10
  TRACK 05 AUDIO
    TITLE "10:cjc040_1722"
    INDEX 01 00:05:57
  TRACK 06 AUDIO
    TITLE "0:"
    INDEX 01 00:06:69
  TRACK 07 AUDIO
    TITLE "11:cjc040_1723"
    INDEX 01 00:07:49
  TRACK 08 AUDIO
    TITLE "0:"
    INDEX 01 00:09:08
  TRACK 09 AUDIO
    TITLE "10:cjc040_1724"
    INDEX 01 00:09:61
  TRACK 10 AUDIO
    TITLE "0:"
    INDEX 01 00:11:01
  TRACK 11 AUDIO
    TITLE "11:cjc040_1725"
    INDEX 01 00:11:52
  TRACK 12 AUDIO
    TITLE "0:"
    INDEX 01 00:14:39
  TRACK 13 AUDIO
    TITLE "10:cjc040_1726"
    INDEX 01 00:15:15
  TRACK 14 AUDIO
    TITLE "0:"
    INDEX 01 00:16:14
  TRACK 15 AUDIO
    TITLE "11:cjc040_1727"
    INDEX 01 00:16:67
  TRACK 16 AUDIO
    TITLE "0:"
    INDEX 01 00:22:54
  TRACK 17 AUDIO
    TITLE "10:cjc040_1728"
    INDEX 01 00:23:32
  TRACK 18 AUDIO
    TITLE "0:"
    INDEX 01 00:24:47
  TRACK 19 AUDIO
    TITLE "11:cjc040_1729"
    INDEX 01 00:25:27
  TRACK 20 AUDIO
    TITLE "0:"
    INDEX 01 00:26:56
  TRACK 21 AUDIO
    TITLE "10:cjc040_1730"
    INDEX 01 00:27:28
  TRACK 22 AUDIO
    TITLE "0:"
    INDEX 01 00:28:27
  TRACK 23 AUDIO
    TITLE "11:cjc040_1731"
    INDEX 01 00:29:09
  TRACK 24 AUDIO
    TITLE "0:"
    INDEX 01 00:31:45
  TRACK 25 AUDIO
    TITLE "10:cjc040_1732"
    INDEX 01 00:32:21
  TRACK 26 AUDIO
    TITLE "0:"
    INDEX 01 00:33:28
  TRACK 27 AUDIO
    TITLE "11:cjc040_1733"
    INDEX 01 00:34:04
  TRACK 28 AUDIO
    TITLE "0:"
    INDEX 01 00:36:60
  TRACK 29 AUDIO
    TITLE "10:cjc040_1734"
    INDEX 01 00:37:36
  TRACK 30 AUDIO
    TITLE "0:"
    INDEX 01 00:38:45
  TRACK 31 AUDIO
    TITLE "11:cjc040_1735"
    INDEX 01 00:39:19
  TRACK 32 AUDIO
    TITLE "0:"
    INDEX 01 00:42:12
  TRACK 33 AUDIO
    TITLE "10:cjc040_1736"
    INDEX 01 00:42:61
  TRACK 34 AUDIO
    TITLE "0:"
    INDEX 01 00:43:68
  TRACK 35 AUDIO
    TITLE "11:cjc040_1737"
    INDEX 01 00:44:44
  TRACK 36 AUDIO
    TITLE "0:"
    INDEX 01 00:45:65
  TRACK 37 AUDIO
    TITLE "10:cjc040_1738"
    INDEX 01 00:46:45
  TRACK 38 AUDIO
    TITLE "0:"
    INDEX 01 00:47:56
  TRACK 39 AUDIO
    TITLE "11:cjc040_1739"
    INDEX 01 00:48:38
  TRACK 40 AUDIO
    TITLE "0:"
    INDEX 01 00:49:74
  TRACK 41 AUDIO
    TITLE "10:cjc040_1740"
    INDEX 01 00:50:46
  TRACK 42 AUDIO
    TITLE "0:"
    INDEX 01 00:51:65
  TRACK 43 AUDIO
    TITLE "11:cjc040_1741"
    INDEX 01 00:52:41
  TRACK 44 AUDIO
    TITLE "0:"
    INDEX 01 00:54:09
  TRACK 45 AUDIO
    TITLE "10:cjc040_1742"
    INDEX 01 00:54:56
  TRACK 46 AUDIO
    TITLE "0:"
    INDEX 01 00:56:02
  TRACK 47 AUDIO
    TITLE "11:cjc040_1743"
    INDEX 01 00:56:53
  TRACK 48 AUDIO
    TITLE "0:"
    INDEX 01 00:58:24
  TRACK 49 AUDIO
    TITLE "10:cjc040_1744"
    INDEX 01 00:59:00
  TRACK 50 AUDIO
    TITLE "0:"
    INDEX 01 01:00:27
  TRACK 51 AUDIO
    TITLE "11:cjc040_1745"
    INDEX 01 01:01:03
  TRACK 52 AUDIO
    TITLE "0:"
    INDEX 01 01:03:45
  TRACK 53 AUDIO
    TITLE "10:cjc040_1746"
    INDEX 01 01:04:23
  TRACK 54 AUDIO
    TITLE "0:"
    INDEX 01 01:05:56
  TRACK 55 AUDIO
    TITLE "11:cjc040_1747"
    INDEX 01 01:06:34
  TRACK 56 AUDIO
    TITLE "0:"
    INDEX 01 01:09:38
  TRACK 57 AUDIO
    TITLE "10:cjc040_1748"
    INDEX 01 01:10:18
  TRACK 58 AUDIO
    TITLE "0:"
    INDEX 01 01:11:27
  TRACK 59 AUDIO
    TITLE "11:cjc040_1749"
    INDEX 01 01:12:09
  TRACK 60 AUDIO
    TITLE "0:"
    INDEX 01 01:13:57
  TRACK 61 AUDIO
    TITLE "10:cjc040_1750"
    INDEX 01 01:14:37
  TRACK 62 AUDIO
    TITLE "0:"
    INDEX 01 01:15:60
  TRACK 63 AUDIO
    TITLE "11:cjc040_1751"
    INDEX 01 01:16:40
  TRACK 64 AUDIO
    TITLE "0:"
    INDEX 01 01:20:42
  TRACK 65 AUDIO
    TITLE "10:cjc040_1752"
    INDEX 01 01:21:21
  TRACK 66 AUDIO
    TITLE "0:"
    INDEX 01 01:22:23
  TRACK 67 AUDIO
    TITLE "11:cjc040_1753"
    INDEX 01 01:23:03
  TRACK 68 AUDIO
    TITLE "0:"
    INDEX 01 01:28:39
  TRACK 69 AUDIO
    TITLE "10:cjc040_1754"
    INDEX 01 01:29:25
  TRACK 70 AUDIO
    TITLE "0:"
    INDEX 01 01:30:38
  TRACK 71 AUDIO
    TITLE "11:cjc040_1755"
    INDEX 01 01:31:20
  TRACK 72 AUDIO
    TITLE "0:"
    INDEX 01 01:35:65
